HIERARCHY
ROOT Pelvis
{
	OFFSET 0.000000 0.000000 0.000000
	CHANNELS 6 Xposition Yposition Zposition Xrotation Yrotation Zrotation
	JOINT LeftUpLeg_virtual
	{
		OFFSET 0.000000 0.000000 0.000000
		CHANNELS 3 Xrotation Yrotation Zrotation
		JOINT LeftUpLeg
		{
			OFFSET 18.735201 -5.666702 -4.541200
			CHANNELS 3 Xrotation Yrotation Zrotation
			JOINT LeftLeg
			{
				OFFSET -0.021200 -31.938179 0.493100
				CHANNELS 3 Xrotation Yrotation Zrotation
				JOINT LeftFoot
				{
					OFFSET 0.021200 -31.938179 -4.336299
					CHANNELS 3 Xrotation Yrotation Zrotation
					JOINT LeftToeBase
					{
						OFFSET 0.943001 -26.722000 15.023500
						CHANNELS 3 Xrotation Yrotation Zrotation
						End Site
						{
							OFFSET 0 0 0
						}
					}
				}
			}
		}
	}
	JOINT RightUpLeg_virtual
	{
		OFFSET 0.000000 0.000000 0.000000
		CHANNELS 3 Xrotation Yrotation Zrotation
		JOINT RightUpLeg
		{
			OFFSET -18.735201 -5.666702 -4.541200
			CHANNELS 3 Xrotation Yrotation Zrotation
			JOINT RightLeg
			{
				OFFSET 0.018946 -31.938133 0.493100
				CHANNELS 3 Xrotation Yrotation Zrotation
				JOINT RightFoot
				{
					OFFSET -0.018946 -31.938126 -4.336299
					CHANNELS 3 Xrotation Yrotation Zrotation
					JOINT RightToeBase
					{
						OFFSET -0.943001 -26.722004 15.023500
						CHANNELS 3 Xrotation Yrotation Zrotation
						End Site
						{
							OFFSET 0 0 0
						}
					}
				}
			}
		}
	}
	JOINT Hips_virtual
	{
		OFFSET 0.000000 0.000000 0.000000
		CHANNELS 3 Xrotation Yrotation Zrotation
		JOINT Hips
		{
			OFFSET -0.000000 -0.000000 -0.000000
			CHANNELS 3 Xrotation Yrotation Zrotation
			JOINT Spine
			{
				OFFSET 0.000000 10.199997 -0.299500
				CHANNELS 3 Xrotation Yrotation Zrotation
				JOINT Spine1
				{
					OFFSET 0.000000 11.900002 -1.516600
					CHANNELS 3 Xrotation Yrotation Zrotation
					JOINT Spine2
					{
						OFFSET 0.000000 13.600006 -2.842500
						CHANNELS 3 Xrotation Yrotation Zrotation
						JOINT Neck_virtual
						{
							OFFSET 0.000000 0.000000 0.000000
							CHANNELS 3 Xrotation Yrotation Zrotation
							JOINT Neck
							{
								OFFSET 0.000000 9.624100 -2.890100
								CHANNELS 3 Xrotation Yrotation Zrotation
								JOINT Head
								{
									OFFSET 0.000000 14.068802 -1.351900
									CHANNELS 3 Xrotation Yrotation Zrotation
									End Site
									{
										OFFSET 0 0 0
									}
								}
							}
						}
						JOINT LeftShoulder_virtual
						{
							OFFSET 0.000000 0.000000 0.000000
							CHANNELS 3 Xrotation Yrotation Zrotation
							JOINT LeftShoulder
							{
								OFFSET 15.263000 10.923401 -0.547700
								CHANNELS 3 Xrotation Yrotation Zrotation
								JOINT LeftArm
								{
									OFFSET 25.438599 -2.830597 -13.032500
									CHANNELS 3 Xrotation Yrotation Zrotation
									JOINT LeftForeArm
									{
										OFFSET 29.960503 0.000000 0.000000
										CHANNELS 3 Xrotation Yrotation Zrotation
										JOINT LeftHand
										{
											OFFSET 27.849251 0.000000 0.000000
											CHANNELS 3 Xrotation Yrotation Zrotation
											End Site
											{
												OFFSET 0 0 0
											}
										}
									}
								}
							}
						}
						JOINT RightShoulder_virtual
						{
							OFFSET 0.000000 0.000000 0.000000
							CHANNELS 3 Xrotation Yrotation Zrotation
							JOINT RightShoulder
							{
								OFFSET -15.263000 10.923401 -0.547700
								CHANNELS 3 Xrotation Yrotation Zrotation
								JOINT RightArm
								{
									OFFSET -25.438599 -2.830597 -13.032500
									CHANNELS 3 Xrotation Yrotation Zrotation
									JOINT RightForeArm
									{
										OFFSET -29.960503 0.000000 0.000000
										CHANNELS 3 Xrotation Yrotation Zrotation
										JOINT RightHand
										{
											OFFSET -27.849251 0.000000 0.000000
											CHANNELS 3 Xrotation Yrotation Zrotation
											End Site
											{
												OFFSET 0 0 0
											}
										}
									}
								}
							}
						}
					}
				}
			}
		}
	}
}
MOTION
Frames: 8
Frame Time: 0.03333333
10.069332 89.926781 108.853485 0.000000 0.000000 0.000000 13.166574 1.930677 -0.769228 -27.472909 13.083443 17.748895 53.209578 17.408730 -9.517280 -1.559341 21.010323 -6.521457 0.000000 0.000000 0.000000 -1.970348 21.132452 6.203812 -33.425662 0.192642 -8.419226 41.165919 -4.986885 -2.804971 -10.057770 -6.702525 2.743693 0.000000 0.000000 0.000000 7.514397 10.615694 -0.388320 20.894720 24.288096 -7.442600 12.107812 -2.979360 0.216468 5.215101 -1.560233 0.485637 0.000000 0.000000 0.000000 2.956008 -1.846931 0.809727 -0.674306 -0.447761 0.520029 0.000000 0.000000 0.000000 6.381078 -2.111782 0.838321 1.272322 -9.870881 -4.342007 -24.726641 -11.988925 -36.153537 -3.160416 -50.818233 -0.365738 0.000000 0.000000 0.000000 6.889024 -0.985132 0.049381 3.324737 -0.456251 2.529529 -10.827349 -0.320785 37.093890 -3.661617 62.520376 2.589815 0.000000 0.000000 0.000000 
10.209452 90.735832 110.279305 0.000000 0.000000 0.000000 12.789411 2.220849 -1.125024 -27.968783 13.163784 17.439973 52.071829 17.413895 -9.626274 -2.313815 21.083793 -6.844699 0.000000 0.000000 0.000000 -1.024821 21.178890 6.224996 -32.053395 0.056244 -8.174005 39.562156 -5.269269 -2.754284 -11.374320 -7.098175 2.663666 0.000000 0.000000 0.000000 7.655133 11.209737 -0.457167 20.664022 24.623158 -7.492239 12.110342 -2.571969 0.097035 5.199218 -1.336655 0.435941 0.000000 0.000000 0.000000 3.070310 -1.795646 0.682601 -0.655055 -0.474283 0.469819 0.000000 0.000000 0.000000 6.418375 -1.917039 0.751837 1.361219 -9.552402 -4.463330 -23.986767 -12.064558 -36.245218 -2.886505 -50.793088 -0.220958 0.000000 0.000000 0.000000 6.953340 -0.832437 -0.036697 3.388401 -0.248923 2.485395 -11.642653 0.034707 37.718661 -4.378973 63.350715 3.305407 0.000000 0.000000 0.000000 
10.364590 91.393036 111.701920 0.000000 0.000000 0.000000 12.415713 2.607467 -1.449389 -28.495974 13.259344 17.193656 51.072989 17.404155 -9.755987 -2.963322 21.152789 -7.190123 0.000000 0.000000 0.000000 -0.148451 21.300578 6.272340 -30.760635 -0.054480 -7.911324 38.060225 -5.548686 -2.699009 -12.634706 -7.483448 2.604598 0.000000 0.000000 0.000000 7.785753 11.829619 -0.531257 20.361605 24.992518 -7.551350 12.095916 -2.153062 -0.023631 5.175226 -1.105997 0.385581 0.000000 0.000000 0.000000 3.180095 -1.741023 0.534976 -0.638112 -0.498810 0.409010 0.000000 0.000000 0.000000 6.441047 -1.708425 0.664431 1.446260 -9.186460 -4.574317 -23.303239 -12.154459 -36.360160 -2.637310 -50.823888 -0.091605 0.000000 0.000000 0.000000 7.008687 -0.669255 -0.127634 3.447791 -0.010771 2.431495 -12.349411 0.464746 38.356310 -5.067924 64.240900 4.027298 0.000000 0.000000 0.000000 
10.532480 91.872971 113.121483 0.000000 0.000000 0.000000 12.031880 3.084584 -1.740915 -29.080213 13.365045 17.014274 50.251764 17.380916 -9.890795 -3.489008 21.208622 -7.526616 0.000000 0.000000 0.000000 0.651170 21.490618 6.342597 -29.565751 -0.139759 -7.638047 36.692715 -5.819420 -2.637496 -13.816108 -7.851291 2.572720 0.000000 0.000000 0.000000 7.905029 12.473024 -0.611418 19.989817 25.387692 -7.621901 12.063048 -1.721082 -0.146448 5.142358 -0.867551 0.333896 0.000000 0.000000 0.000000 3.280618 -1.680025 0.369260 -0.625700 -0.519523 0.339213 0.000000 0.000000 0.000000 6.446173 -1.485347 0.576465 1.524661 -8.771783 -4.672288 -22.683323 -12.258247 -36.501221 -2.415286 -50.915034 0.021266 0.000000 0.000000 0.000000 7.054071 -0.492958 -0.225306 3.501128 0.267359 2.361168 -12.960554 0.961796 38.998768 -5.736261 65.183542 4.758725 0.000000 0.000000 0.000000 
10.712485 92.160294 114.538452 0.000000 0.000000 0.000000 11.629068 3.633653 -1.999520 -29.737015 13.474537 16.900917 49.632977 17.344046 -10.011388 -3.879611 21.240562 -7.821182 0.000000 0.000000 0.000000 1.373325 21.735105 6.431185 -28.478161 -0.202614 -7.361894 35.484889 -6.077460 -2.568145 -14.899885 -8.196875 2.572149 0.000000 0.000000 0.000000 8.011813 13.135438 -0.697669 19.550423 25.797128 -7.701866 12.011284 -1.275724 -0.271951 5.100374 -0.621335 0.280355 0.000000 0.000000 0.000000 3.368401 -1.610697 0.188048 -0.619442 -0.535275 0.262034 0.000000 0.000000 0.000000 6.431143 -1.247606 0.488756 1.593680 -8.308380 -4.753322 -22.132864 -12.374179 -36.670490 -2.222390 -51.069198 0.116975 0.000000 0.000000 0.000000 7.087727 -0.301837 -0.331419 3.545900 0.591233 2.268393 -13.489297 1.517092 39.640465 -6.393548 66.170886 5.504861 0.000000 0.000000 0.000000 
10.906044 92.251129 115.954720 0.000000 0.000000 0.000000 11.205354 4.227634 -2.226764 -30.468398 13.581567 16.847505 49.227796 17.293462 -10.096425 -4.130671 21.238487 -8.040364 0.000000 0.000000 0.000000 2.023000 22.012323 6.532766 -27.499090 -0.248934 -7.090840 34.453291 -6.320276 -2.489714 -15.872598 -8.517330 2.604668 0.000000 0.000000 0.000000 8.105180 13.810548 -0.789274 19.045206 26.207735 -7.786210 11.940870 -0.818249 -0.400494 5.049391 -0.368232 0.224423 0.000000 0.000000 0.000000 3.441552 -1.532190 -0.005916 -0.620190 -0.545532 0.179033 0.000000 0.000000 0.000000 6.393977 -0.995575 0.402466 1.650797 -7.797679 -4.812978 -21.657160 -12.498940 -36.868675 -2.060399 -51.287156 0.195283 0.000000 0.000000 0.000000 7.107249 -0.095522 -0.447293 3.579104 0.961897 2.148504 -13.946700 2.119816 40.278411 -7.050053 67.194069 6.272206 0.000000 0.000000 0.000000 
11.116821 92.154587 117.373932 0.000000 0.000000 0.000000 10.766819 4.835952 -2.425806 -31.261397 13.681315 16.843663 49.034533 17.229649 -10.124903 -4.243569 21.194391 -8.153425 0.000000 0.000000 0.000000 2.609469 22.293290 6.641483 -26.622686 -0.287008 -6.832683 33.604141 -6.546353 -2.401566 -16.726770 -8.811338 2.669735 0.000000 0.000000 0.000000 8.184714 14.491179 -0.885053 18.477752 26.607415 -7.869719 11.852239 -0.351496 -0.532452 4.989623 -0.109974 0.165445 0.000000 0.000000 0.000000 3.499692 -1.444461 -0.209605 -0.628058 -0.550120 0.091792 0.000000 0.000000 0.000000 6.333561 -0.730351 0.319034 1.693912 -7.242651 -4.846755 -21.261674 -12.628163 -37.094163 -1.930986 -51.568143 0.256722 0.000000 0.000000 0.000000 7.109859 0.124787 -0.573617 3.597587 1.375033 1.998972 -14.340097 2.756546 40.911986 -7.715681 68.242401 7.067796 0.000000 0.000000 0.000000 
11.350685 91.893829 118.801353 0.000000 0.000000 0.000000 10.326969 5.429705 -2.600990 -32.089141 13.771273 16.876153 49.038829 17.153195 -10.078736 -4.225227 21.102885 -8.136454 0.000000 0.000000 0.000000 3.144906 22.543617 6.750986 -25.836968 -0.326611 -6.594623 32.932406 -6.754629 -2.303805 -17.461047 -9.078667 2.764753 0.000000 0.000000 0.000000 8.250825 15.170258 -0.983775 17.855615 26.987746 -7.950414 11.745429 0.120332 -0.668292 4.921124 0.150972 0.102608 0.000000 0.000000 0.000000 3.543475 -1.347831 -0.419442 -0.642651 -0.548896 0.002070 0.000000 0.000000 0.000000 6.249790 -0.453873 0.240156 1.721503 -6.647947 -4.850283 -20.952281 -12.757808 -37.342020 -1.835447 -51.910746 0.303126 0.000000 0.000000 0.000000 7.092680 0.356305 -0.710188 3.598313 1.821069 1.820340 -14.672751 3.411022 41.542297 -8.399211 69.302829 7.898361 0.000000 0.000000 0.000000 
